:FULLY-SPECIFIED
:FORCE-ALL-JOINTS-BE-3DOF
:DEGREES
815
root 2.00426 16.5914 22.6726 5.87623 0.237595 353.83
lfemur -37.1866 -1.88681 2.53858
ltibia 22.3526 0 0
lfoot -9.9792 11.8947 0
ltoes 18.5518 0 0
rfemur 3.52432 5.53486 22.9391
rtibia 18.8791 0 0
rfoot -24.9412 -14.1375 0
rtoes -24.8485 0 0
lowerback 0.393877 6.52854 5.81454
upperback -0.253456 8.72221 -0.351947
thorax 0.430572 4.36595 -3.48923
lowerneck -5.56231 -1.69742 2.94909
upperneck -0.621159 -2.45473 1.54877
head 0.701984 -1.2067 -0.0627109
lclavicle -2.44838e-14 1.44414e-15 0
lhumerus -53.581 -6.63056 91.1714
lradius 54.4868 0 0
lwrist 20.0465 0 0
lhand -8.23976 5.43258 0
lfingers 7.12502 0 0
lthumb 17.6778 34.6442 0
rclavicle -2.44838e-14 1.44414e-15 0
rhumerus -30.4805 46.5023 -112.079
rradius 68.7215 0 0
rwrist -1.99649 0 0
rhand -8.25432 -23.727 0
rfingers 7.12502 0 0
rthumb 17.663 -772.947 0
816
root 2.03224 16.5881 22.8159 5.5953 -0.877136 353.376
lfemur -36.9137 -1.60223 2.98928
ltibia 20.7808 0 0
lfoot -9.45224 12.9402 0
ltoes 18.9114 0 0
rfemur 4.25471 5.88308 22.9455
rtibia 18.3282 0 0
rfoot -24.5301 -14.0008 0
rtoes -25.1587 0 0
lowerback 0.312361 6.62554 5.89531
upperback -0.26557 8.84925 -0.276667
thorax 0.475716 4.43046 -3.44578
lowerneck -5.53878 -1.61855 3.04339
upperneck -0.499243 -2.35766 1.5023
head 0.736014 -1.15714 -0.0911308
lclavicle -1.84779e-14 1.16485e-15 0
lhumerus -53.5106 -6.5373 91.0564
lradius 53.8675 0 0
lwrist 19.6402 0 0
lhand -8.00432 5.44418 0
lfingers 7.12502 0 0
lthumb 17.9044 34.6357 0
rclavicle -1.84779e-14 1.16485e-15 0
rhumerus -30.1945 46.3889 -111.489
rradius 68.4211 0 0
rwrist -2.21205 0 0
rhand -7.72209 -23.4099 0
rfingers 7.12502 0 0
rthumb 18.1761 -772.596 0
817
root 2.06022 16.5848 22.9591 5.31922 -1.89989 352.991
lfemur -36.6387 -1.34587 3.34797
ltibia 19.4153 0 0
lfoot -8.95426 13.7985 0
ltoes 19.1557 0 0
rfemur 4.86645 6.15749 22.8836
rtibia 18.0296 0 0
rfoot -23.9808 -13.7626 0
rtoes -25.4309 0 0
lowerback 0.233576 6.70874 5.95224
upperback -0.277919 8.95805 -0.203473
thorax 0.514651 4.48572 -3.39245
lowerneck -5.52038 -1.55304 3.1292
upperneck -0.354852 -2.2786 1.4581
head 0.778473 -1.1161 -0.118383
lclavicle -1.29449e-14 8.78593e-16 0
lhumerus -53.4542 -6.44333 90.9325
lradius 53.3064 0 0
lwrist 19.2699 0 0
lhand -7.77822 5.45456 0
lfingers 7.12502 0 0
lthumb 18.122 34.6266 0
rclavicle -1.29449e-14 8.78593e-16 0
rhumerus -29.9535 46.2059 -110.837
rradius 68.1006 0 0
rwrist -2.37405 0 0
rhand -7.3306 -23.134 0
rfingers 7.12502 0 0
rthumb 18.5534 -772.293 0
818
root 2.0882 16.5814 23.1024 5.05725 -2.82683 352.693
lfemur -36.3628 -1.12609 3.6044
ltibia 18.2848 0 0
lfoot -8.48966 14.4398 0
ltoes 19.2689 0 0
rfemur 5.34444 6.35251 22.7456
rtibia 18.0101 0 0
rfoot -23.2809 -13.4085 0
rtoes -25.659 0 0
lowerback 0.158219 6.77626 5.98326
upperback -0.290319 9.04611 -0.132464
thorax 0.546685 4.53045 -3.32834
lowerneck -5.50789 -1.50205 3.20561
upperneck -0.185753 -2.21913 1.41604
head 0.830196 -1.08431 -0.144453
lclavicle -7.99126e-15 5.87574e-16 0
lhumerus -53.4135 -6.34831 90.7987
lradius 52.8114 0 0
lwrist 18.9434 0 0
lhand -7.56204 5.46536 0
lfingers 7.12502 0 0
lthumb 18.33 34.6189 0
rclavicle -7.99126e-15 5.87574e-16 0
rhumerus -29.7648 45.9458 -110.119
rradius 67.7576 0 0
rwrist -2.47634 0 0
rhand -7.09702 -22.9067 0
rfingers 7.12502 0 0
rthumb 18.7783 -772.045 0
819
root 2.11618 16.5781 23.2456 4.81865 -3.6541 352.498
lfemur -36.0872 -0.95124 3.74832
ltibia 17.418 0 0
lfoot -8.06284 14.8343 0
ltoes 19.2349 0 0
rfemur 5.67361 6.46256 22.5235
rtibia 18.2969 0 0
rfoot -22.4177 -12.9242 0
rtoes -25.837 0 0
lowerback 0.0869896 6.8262 5.98628
upperback -0.302587 9.11096 -0.0637374
thorax 0.571129 4.56338 -3.25256
lowerneck -5.50211 -1.46673 3.2717
upperneck 0.0102866 -2.18084 1.37601
head 0.892019 -1.06253 -0.169326
lclavicle -3.72359e-15 2.9398e-16 0
lhumerus -53.3903 -6.25189 90.6542
lradius 52.3904 0 0
lwrist 18.6688 0 0
lhand -7.35632 5.47827 0
lfingers 7.12502 0 0
lthumb 18.528 34.6143 0
rclavicle -3.72359e-15 2.9398e-16 0
rhumerus -29.6354 45.6007 -109.332
rradius 67.3895 0 0
rwrist -2.51278 0 0
rhand -7.03851 -22.7353 0
rfingers 7.12502 0 0
rthumb 18.8345 -771.861 0
820
root 2.14416 16.5748 23.3889 4.61266 -4.37788 352.424
lfemur -35.8129 -0.829675 3.76948
ltibia 16.8436 0 0
lfoot -7.6782 14.9523 0
ltoes 19.0378 0 0
rfemur 5.83887 6.48206 22.2095
rtibia 18.917 0 0
rfoot -21.3786 -12.2951 0
rtoes -25.9589 0 0
lowerback 0.0205861 6.85666 5.95921
upperback -0.314538 9.1501 0.00260752
thorax 0.58729 4.58326 -3.16423
lowerneck -5.50381 -1.44827 3.32656
upperneck 0.235501 -2.16531 1.33786
head 0.964776 -1.05151 -0.192986
lclavicle -2.48481e-16 0 0
lhumerus -53.3862 -6.15374 90.498
lradius 52.0513 0 0
lwrist 18.4542 0 0
lhand -7.16163 5.49493 0
lfingers 7.12502 0 0
lthumb 18.7154 34.6146 0
rclavicle -2.48481e-16 0 0
rhumerus -29.5725 45.1631 -108.471
rradius 66.9941 0 0
rwrist -2.47723 0 0
rhand -7.17223 -22.6272 0
rfingers 7.12502 0 0
rthumb 18.7052 -771.748 0
821
root 2.21344 16.5597 23.5727 4.40562 -4.98629 352.436
lfemur -35.5444 -0.745273 3.65978
ltibia 16.5619 0 0
lfoot -7.32591 14.8237 0
ltoes 18.6384 0 0
rfemur 5.88431 6.37825 21.7843
rtibia 19.9525 0 0
rfoot -20.0825 -11.4853 0
rtoes -26.0514 0 0
lowerback -0.0590311 6.8748 5.90009
upperback -0.332816 9.17354 0.0692099
thorax 0.597124 4.59509 -3.05982
lowerneck -5.51281 -1.45044 3.37041
upperneck 0.501335 -2.17768 1.30082
head 1.05237 -1.05364 -0.216046
lclavicle 2.68829e-15 -3.05786e-16 0
lhumerus -53.4236 -6.03406 90.3299
lradius 51.789 0 0
lwrist 18.2763 0 0
lhand -6.99062 5.5071 0
lfingers 7.12502 0 0
lthumb 18.8801 34.6131 0
rclavicle 2.68829e-15 -3.05786e-16 0
rhumerus -29.5565 44.6355 -107.516
rradius 66.563 0 0
rwrist -2.35307 0 0
rhand -7.54149 -22.57 0
rfingers 7.12502 0 0
rthumb 18.3487 -771.695 0
822
root 2.28272 16.5446 23.7565 4.15947 -5.47445 352.485
lfemur -35.2839 -0.675116 3.42502
ltibia 16.5386 0 0
lfoot -6.99279 14.5083 0
ltoes 18.0246 0 0
rfemur 5.86332 6.1316 21.242
rtibia 21.4368 0 0
rfoot -18.4796 -10.4832 0
rtoes -26.1431 0 0
lowerback -0.167132 6.8886 5.80983
upperback -0.362957 9.19225 0.138299
thorax 0.603024 4.60438 -2.93756
lowerneck -5.528 -1.47487 3.40451
upperneck 0.814266 -2.22014 1.2644
head 1.1569 -1.06995 -0.239013
lclavicle 5.41801e-15 -6.3514e-16 0
lhumerus -53.5184 -5.87744 90.1507
lradius 51.5901 0 0
lwrist 18.1071 0 0
lhand -6.85275 5.50617 0
lfingers 7.12502 0 0
lthumb 19.0129 34.6024 0
rclavicle 5.41801e-15 -6.3514e-16 0
rhumerus -29.5632 44.0292 -106.453
rradius 66.0924 0 0
rwrist -2.13438 0 0
rhand -8.16033 -22.545 0
rfingers 7.12502 0 0
rthumb 17.7515 -771.684 0
823
root 2.352 16.5295 23.9404 3.87691 -5.849 352.569
lfemur -35.0291 -0.617358 3.07584
ltibia 16.7507 0 0
lfoot -6.6783 14.0209 0
ltoes 17.2207 0 0
rfemur 5.77474 5.75641 20.5946
rtibia 23.3236 0 0
rfoot -16.6042 -9.3113 0
rtoes -26.2308 0 0
lowerback -0.298864 6.89745 5.69069
upperback -0.403115 9.20523 0.209162
thorax 0.604957 4.61067 -2.79922
lowerneck -5.54881 -1.5195 3.42953
upperneck 1.16907 -2.2899 1.22894
head 1.27655 -1.0991 -0.261715
lclavicle 7.94968e-15 -9.86389e-16 0
lhumerus -53.6624 -5.6901 89.9612
lradius 51.4499 0 0
lwrist 17.947 0 0
lhand -6.74379 5.49328 0
lfingers 7.12502 0 0
lthumb 19.118 34.583 0
rclavicle 7.94968e-15 -9.86389e-16 0
rhumerus -29.5927 43.3497 -105.292
rradius 65.5869 0 0
rwrist -1.83107 0 0
rhand -9.00204 -22.55 0
rfingers 7.12502 0 0
rthumb 16.9392 -771.71 0
824
root 2.42129 16.5144 24.1242 3.56065 -6.11657 352.684
lfemur -34.7779 -0.570153 2.62287
ltibia 17.1753 0 0
lfoot -6.38184 13.3765 0
ltoes 16.2513 0 0
rfemur 5.6174 5.26698 19.8543
rtibia 25.5666 0 0
rfoot -14.4908 -7.99184 0
rtoes -26.3114 0 0
lowerback -0.449373 6.9007 5.54494
upperback -0.451444 9.21147 0.281087
thorax 0.602887 4.61345 -2.64658
lowerneck -5.57466 -1.58226 3.44614
upperneck 1.56054 -2.38414 1.19479
head 1.40947 -1.13978 -0.283982
lclavicle 1.02923e-14 -1.35786e-15 0
lhumerus -53.8475 -5.47823 89.7623
lradius 51.3634 0 0
lwrist 17.7966 0 0
lhand -6.65948 5.46959 0
lfingers 7.12502 0 0
lthumb 19.1995 34.5556 0
rclavicle 1.02923e-14 -1.35786e-15 0
rhumerus -29.6451 42.6023 -104.042
rradius 65.0506 0 0
rwrist -1.45303 0 0
rhand -10.0399 -22.5827 0
rfingers 7.12502 0 0
rthumb 15.9377 -771.772 0
825
root 2.49057 16.4993 24.308 3.21337 -6.28379 352.828
lfemur -34.528 -0.531656 2.07674
ltibia 17.7892 0 0
lfoot -6.10286 12.5897 0
ltoes 15.141 0 0
rfemur 5.39014 4.67761 19.033
rtibia 28.1196 0 0
rfoot -12.1737 -6.54718 0
rtoes -26.3818 0 0
lowerback -0.613808 6.89773 5.37482
upperback -0.506099 9.20995 0.35336
thorax 0.596783 4.61224 -2.4814
lowerneck -5.60499 -1.66108 3.455
upperneck 1.98344 -2.50005 1.16227
head 1.55383 -1.19068 -0.305642
lclavicle 1.24549e-14 -1.74787e-15 0
lhumerus -54.0658 -5.24805 89.5547
lradius 51.326 0 0
lwrist 17.6564 0 0
lhand -6.59559 5.43624 0
lfingers 7.12502 0 0
lthumb 19.2613 34.5207 0
rclavicle 1.24549e-14 -1.74787e-15 0
rhumerus -29.7207 41.7924 -102.712
rradius 64.4882 0 0
rwrist -1.01015 0 0
rhand -11.2472 -22.6411 0
rfingers 7.12502 0 0
rthumb 14.7728 -771.865 0
826
root 2.55985 16.4842 24.4918 2.83778 -6.35729 352.997
lfemur -34.2772 -0.50002 1.44809
ltibia 18.5695 0 0
lfoot -5.84078 11.6755 0
ltoes 13.9143 0 0
rfemur 5.09181 4.00257 18.1428
rtibia 30.9362 0 0
rfoot -9.68735 -4.99968 0
rtoes -26.4386 0 0
lowerback -0.787314 6.8879 5.18261
upperback -0.565233 9.19967 0.425268
thorax 0.586609 4.60655 -2.30545
lowerneck -5.63922 -1.7539 3.4568
upperneck 2.43255 -2.63484 1.13172
head 1.70779 -1.25047 -0.326523
lclavicle 1.44464e-14 -2.15476e-15 0
lhumerus -54.3091 -5.00577 89.3393
lradius 51.3329 0 0
lwrist 17.5269 0 0
lhand -6.54788 5.39438 0
lfingers 7.12502 0 0
lthumb 19.3077 34.4789 0
rclavicle 1.44464e-14 -2.15476e-15 0
rhumerus -29.8196 40.9254 -101.312
rradius 63.904 0 0
rwrist -0.512347 0 0
rhand -12.5971 -22.7228 0
rfingers 7.12502 0 0
rthumb 13.4703 -771.988 0
